<svg width="17" height="46" viewBox="0 0 17 46" fill="none" xmlns="http://www.w3.org/2000/svg">
<g clip-path="url(#clip0_28_119)">
<path d="M-0.999992 36C1.3638 36 3.70445 35.5344 5.88831 34.6298C8.07217 33.7252 10.0565 32.3994 11.7279 30.7279C13.3994 29.0565 14.7252 27.0721 15.6298 24.8883C16.5344 22.7044 17 20.3638 17 18C17 15.6362 16.5344 13.2956 15.6298 11.1117C14.7252 8.92783 13.3994 6.94353 11.7279 5.27207C10.0565 3.60062 8.07217 2.27475 5.88831 1.37017C3.70445 0.465583 1.3638 -8.90129e-07 -0.999992 -7.86805e-07L-0.999991 18L-0.999992 36Z" fill="#8F49E9"/>
<rect x="-1" y="36" width="18" height="10.2089" fill="#8F49E9"/>
</g>
<defs>
<clipPath id="clip0_28_119">
<rect width="17" height="46" fill="white"/>
</clipPath>
</defs>
</svg>
