<svg width="212" height="72" viewBox="0 0 212 72" fill="none" xmlns="http://www.w3.org/2000/svg">
<path opacity="0.75" d="M55.1932 28.6635C50.2037 39.2107 37.5535 43.7417 26.9392 38.7837C16.3249 33.8258 11.7652 21.2567 16.7548 10.7096L55.1932 28.6635Z" fill="white"/>
<path opacity="0.25" d="M55.2125 28.6393C49.0965 36.9109 37.3944 38.6967 29.0625 32.6302C20.7306 26.5638 18.9185 14.9383 25.0143 6.65247L55.2117 28.6393H55.2125Z" fill="white"/>
<path opacity="0.5" fill-rule="evenodd" clip-rule="evenodd" d="M55.326 8.09415C64.3032 8.09415 71.5819 15.326 71.5819 24.2464C70.7376 24.2462 69.9016 24.4122 69.1221 24.7349C68.3425 25.0577 67.6349 25.5307 67.0399 26.1268C66.4454 26.7223 65.9755 27.4293 65.6574 28.2067C65.3393 28.9842 65.1792 29.8167 65.1866 30.6561L65.2597 38.9897C65.2597 45.8916 62.5004 52.5106 57.589 57.3907C52.6741 62.2725 46.0134 65.0137 39.0693 65.0127V24.2456C39.0693 15.3251 46.348 8.09331 55.326 8.09331V8.09415ZM61.5186 18.6698C61.5337 19.1876 61.751 19.6791 62.1244 20.0401C62.4978 20.401 62.9978 20.6029 63.5183 20.6029C64.0388 20.6029 64.5389 20.401 64.9123 20.0401C65.2856 19.6791 65.5029 19.1876 65.518 18.6698C65.5178 18.4087 65.4659 18.1501 65.3653 17.909C65.2647 17.6678 65.1173 17.4488 64.9316 17.2643C64.7459 17.0798 64.5255 16.9335 64.2831 16.8338C64.0406 16.7341 63.7807 16.6829 63.5183 16.6831C63.2559 16.6829 62.9961 16.7341 62.7536 16.8338C62.5111 16.9335 62.2907 17.0798 62.105 17.2643C61.9193 17.4488 61.772 17.6678 61.6714 17.909C61.5707 18.1501 61.5188 18.4087 61.5186 18.6698Z" fill="white"/>
<path d="M55.1924 28.6644C55.1924 41.9743 44.3342 52.7643 30.9386 52.7643C17.5431 52.7643 6.68481 41.9743 6.68481 28.6644H55.1924Z" fill="white"/>
<path opacity="0.25" d="M55.1925 28.6644C57.2633 32.3607 58.3182 36.535 58.2507 40.7665C58.1832 44.998 56.9957 49.1369 54.808 52.766C52.6171 56.3978 49.5047 59.3921 45.7833 61.4482C42.0618 63.5044 37.8623 64.55 33.6063 64.4802C29.3506 64.4129 25.1875 63.2326 21.5351 61.0577C17.8827 58.8827 14.8696 55.7898 12.7983 52.0895L55.1925 28.6644Z" fill="white"/>
<path opacity="0.25" d="M55.1924 28.6644C56.3285 32.7418 56.3647 37.0451 55.2973 41.1409C54.23 45.2366 52.0967 48.9801 49.1125 51.994C46.1249 55.0114 42.3927 57.194 38.2901 58.3231C34.1875 59.4522 29.8588 59.4881 25.7378 58.4272C21.6186 57.3689 17.8519 55.2502 14.8162 52.2841C11.7804 49.318 9.58271 45.609 8.44385 41.5298L55.1932 28.6644H55.1924Z" fill="white"/>
<path opacity="0.75" d="M39.0693 65.0126C53.7747 63.7979 58.8055 52.2611 58.8055 41.1689V35.784C58.8055 26.4952 64.4185 24.2473 71.5819 24.2473C70.7377 24.247 69.9017 24.4129 69.1222 24.7354C68.3427 25.058 67.635 25.5309 67.0399 26.1268C66.4454 26.7223 65.9755 27.4293 65.6574 28.2067C65.3393 28.9842 65.1792 29.8167 65.1866 30.6561L65.2597 38.9897C65.2597 45.8916 62.5004 52.5106 57.589 57.3907C52.6741 62.2724 46.0134 65.0137 39.0693 65.0126Z" fill="white"/>
<path fill-rule="evenodd" clip-rule="evenodd" d="M78.2659 13.9069V39.4945H85.4049V31.6381H89.6516C90.9211 31.6381 92.0863 31.392 93.1479 30.8997C94.1779 30.4306 95.0999 29.7558 95.8568 28.9172C96.6056 28.0815 97.1949 27.1169 97.5957 26.0707C98.0113 25.0008 98.2183 23.9023 98.2183 22.7721C98.2183 21.6921 97.9987 20.6163 97.5596 19.5472C97.1326 18.4975 96.5188 17.5332 95.7475 16.7007C94.9626 15.8598 94.0245 15.1749 92.983 14.6821C91.9096 14.1656 90.7377 13.9069 89.4691 13.9069H78.2659ZM89.1763 25.5106H85.4057V20.0344H88.9937C89.4329 20.0344 89.872 20.227 90.3112 20.6113C90.7503 20.9955 90.9707 21.7164 90.9707 22.7729C90.9707 23.8061 90.7814 24.521 90.4029 24.9179C90.0243 25.3139 89.6154 25.5123 89.1763 25.5123V25.5106Z" fill="white"/>
<path d="M118.172 33.3678V39.4945H99.6443V13.9061H117.843V20.0319H106.784V23.6361H116.232V29.3308H106.784V33.3661H118.172V33.3678ZM129.483 26.9163V39.4945H122.448V13.9061H127.932L138.215 26.9163V13.9061H145.25V39.4937H139.658L129.483 26.9163ZM166.6 37.2198C164.797 38.736 162.722 39.4945 160.374 39.4945C158.738 39.4945 157.172 39.204 155.678 38.6238C154.209 38.0597 152.875 37.194 151.764 36.0829C150.65 34.9694 149.76 33.6064 149.096 31.9956C148.432 30.3848 148.1 28.5488 148.1 26.4868C148.1 24.7102 148.432 23.0576 149.096 21.5297C149.736 20.0361 150.667 18.6835 151.835 17.5496C152.998 16.4235 154.367 15.5353 155.945 14.8839C157.522 14.2326 159.224 13.9069 161.049 13.9069C162.188 13.9069 163.28 14.0308 164.323 14.2794C165.367 14.5281 166.333 14.8956 167.223 15.3812C168.096 15.8552 168.903 16.4406 169.624 17.1226C170.335 17.7982 170.917 18.5626 171.367 19.4149L166.208 23.3598C165.71 22.3644 164.963 21.5648 163.967 20.9612C162.971 20.3567 161.915 20.0545 160.8 20.0545C159.971 20.0545 159.211 20.2203 158.524 20.5527C157.838 20.8825 157.231 21.355 156.745 21.9382C156.247 22.5301 155.855 23.2359 155.571 24.053C155.286 24.8701 155.144 25.7643 155.144 26.7363C155.144 27.7309 155.286 28.6317 155.571 29.4371C155.855 30.2425 156.252 30.9357 156.763 31.5159C157.268 32.0927 157.893 32.5534 158.595 32.8663C159.306 33.1861 160.101 33.3461 160.979 33.3461C162.994 33.3461 164.774 32.5172 166.315 30.8587H161.939V25.8832H172.327V39.3154H166.6V37.219V37.2198ZM179.846 13.9061L184.371 24.9706L189.002 13.9069H196.556L187.827 31.0253V39.4945H180.915V30.9533L172.328 13.9061H179.846ZM197.981 39.4945V13.9061H205.107V39.4937H197.981V39.4945Z" fill="white"/>
<g opacity="0.8">
<path fill-rule="evenodd" clip-rule="evenodd" d="M105.423 43.1246V57.3639H118.897V55.8795H107.259V43.1238H105.423V43.1246ZM128.244 43.1246L119.962 57.3639H122.062L123.956 54.1005H135.316L137.203 57.3639H139.108L130.849 43.1238H128.244V43.1246ZM129.646 44.2993L134.455 52.6169H124.817L129.646 44.2993ZM152.203 55.934C152.918 55.934 153.537 55.9239 154.06 55.9005C154.507 55.8883 154.952 55.8424 155.392 55.7632C155.755 55.692 156.048 55.589 156.271 55.4559C156.489 55.3279 156.67 55.1444 156.793 54.9243C156.928 54.6739 157.013 54.4007 157.047 54.1189C157.092 53.8016 157.114 53.4206 157.114 52.9736C157.114 52.6245 157.092 52.3222 157.047 52.0644C157.012 51.8311 156.926 51.6084 156.793 51.413C156.659 51.2282 156.479 51.0806 156.271 50.9844C156.048 50.8755 155.755 50.7901 155.392 50.7282C154.951 50.6601 154.506 50.6182 154.06 50.6026C153.441 50.5792 152.822 50.5684 152.203 50.57H143.633V55.934H152.203ZM152.203 49.0797C152.828 49.0797 153.368 49.0672 153.82 49.042C154.21 49.0256 154.597 48.9788 154.98 48.9022C155.298 48.8353 155.556 48.7398 155.755 48.6176C155.953 48.4979 156.109 48.3405 156.219 48.1487C156.33 47.9562 156.405 47.7234 156.445 47.4539C156.482 47.1843 156.501 46.8628 156.501 46.4911C156.501 46.0934 156.457 45.7694 156.367 45.5207C156.282 45.2792 156.112 45.0763 155.889 44.9489C155.659 44.8158 155.346 44.7254 154.956 44.6777C154.455 44.6265 153.951 44.6036 153.447 44.609H143.633V49.0797H152.203ZM141.797 57.4242V43.1196H154.061C154.98 43.1196 155.721 43.1916 156.281 43.3373C156.842 43.4838 157.275 43.6973 157.579 43.9803C157.882 44.2616 158.085 44.6149 158.187 45.0377C158.289 45.4605 158.34 45.9435 158.34 46.4911C158.34 46.8871 158.304 47.2387 158.235 47.5426C158.176 47.8168 158.082 48.0826 157.956 48.3338C157.764 48.7155 157.473 49.0398 157.115 49.274C156.756 49.5109 156.349 49.6457 155.889 49.675C156.464 49.706 156.974 49.8424 157.42 50.0844C157.611 50.1907 157.8 50.323 157.981 50.482C158.162 50.6378 158.326 50.8337 158.47 51.0673C158.614 51.3008 158.728 51.5738 158.818 51.8877C158.909 52.2 158.953 52.5617 158.953 52.9727C158.953 53.4692 158.928 53.923 158.881 54.3349C158.841 54.7192 158.742 55.0953 158.589 55.45C158.442 55.7795 158.226 56.074 157.956 56.314C157.683 56.5644 157.317 56.7712 156.861 56.9336C156.405 57.1002 155.845 57.2216 155.186 57.302C154.525 57.3832 153.734 57.4242 152.815 57.4242H141.797Z" fill="white"/>
<mask id="mask0_55_443" style="mask-type:alpha" maskUnits="userSpaceOnUse" x="161" y="42" width="17" height="16">
<path fill-rule="evenodd" clip-rule="evenodd" d="M161.404 42.8207H177.949V57.7591H161.404V42.8207Z" fill="white"/>
</mask>
<g mask="url(#mask0_55_443)">
<path fill-rule="evenodd" clip-rule="evenodd" d="M171.284 49.3753C172.293 49.3753 173.157 49.4146 173.879 49.4967C174.6 49.5795 175.207 49.6976 175.702 49.8567C176.197 50.0182 176.593 50.2133 176.885 50.4511C177.177 50.6888 177.405 50.9584 177.564 51.259C177.725 51.5637 177.828 51.9003 177.876 52.2753C177.924 52.6479 177.948 53.054 177.948 53.4918C177.948 53.9238 177.908 54.3315 177.828 54.71C177.749 55.0909 177.606 55.4383 177.402 55.7531C177.181 56.0856 176.899 56.3727 176.569 56.5987C176.217 56.8465 175.772 57.0558 175.229 57.23C174.686 57.4024 174.034 57.5339 173.272 57.6226C172.508 57.7114 171.616 57.7566 170.595 57.7566H168.145C167.339 57.7615 166.533 57.728 165.731 57.6561C165.041 57.5866 164.448 57.4828 163.95 57.343C163.451 57.2032 163.041 57.0257 162.716 56.8122C162.407 56.6159 162.141 56.3593 161.935 56.0579C161.736 55.7589 161.597 55.4238 161.528 55.0716C161.449 54.6682 161.41 54.2579 161.413 53.8468H163.25C163.25 54.4136 163.335 54.8573 163.5 55.178C163.666 55.502 163.94 55.7422 164.324 55.903C164.705 56.0646 165.209 56.1642 165.831 56.2052C166.454 56.2479 167.225 56.2663 168.145 56.2663H170.595C171.668 56.2663 172.557 56.2169 173.266 56.1165C173.975 56.0185 174.539 55.8569 174.96 55.6401C175.383 55.4199 175.68 55.1336 175.851 54.7803C176.023 54.427 176.109 53.9992 176.109 53.491C176.109 52.9836 176.05 52.5625 175.931 52.2243C175.815 51.8869 175.582 51.6173 175.234 51.4189C174.886 51.2196 174.395 51.0765 173.763 50.9927C173.132 50.909 172.305 50.8647 171.284 50.8647H168.756C167.634 50.8647 166.671 50.8253 165.87 50.7449C165.069 50.6646 164.398 50.5474 163.855 50.3941C163.311 50.2434 162.877 50.0542 162.552 49.8273C162.25 49.6255 161.997 49.3599 161.811 49.0496C161.639 48.7492 161.526 48.4191 161.479 48.0767C161.427 47.6928 161.401 47.3056 161.403 46.918C161.403 46.4827 161.444 46.0792 161.523 45.7083C161.598 45.3435 161.75 44.9984 161.967 44.6953C162.186 44.3939 162.481 44.126 162.86 43.8899C163.235 43.6554 163.719 43.4562 164.308 43.2996C164.9 43.1406 165.611 43.0217 166.439 42.9396C167.414 42.8532 168.391 42.8133 169.369 42.8199H171.207C172.126 42.8199 172.932 42.8509 173.62 42.917C174.309 42.9823 174.904 43.0845 175.401 43.2243C175.898 43.3641 176.312 43.5382 176.641 43.745C176.97 43.9543 177.231 44.2038 177.425 44.4901C177.62 44.779 177.755 45.1063 177.833 45.473C177.909 45.8414 177.948 46.2474 177.948 46.6928H176.109C176.109 46.1336 176.026 45.6982 175.861 45.3784C175.693 45.0636 175.42 44.8259 175.038 44.6693C174.654 44.5102 174.149 44.4098 173.524 44.3696C172.752 44.3257 171.98 44.3056 171.207 44.3093H169.369C168.145 44.3093 167.135 44.3503 166.343 44.4349C165.552 44.5194 164.927 44.6609 164.467 44.8594C164.007 45.0569 163.688 45.3248 163.508 45.6589C163.332 45.9938 163.242 46.4124 163.242 46.918C163.242 47.227 163.264 47.5033 163.307 47.7469C163.348 47.9773 163.442 48.1951 163.582 48.3832C163.719 48.5674 163.913 48.7214 164.161 48.8461C164.409 48.9692 164.739 49.0714 165.146 49.1517C165.555 49.2321 166.054 49.2899 166.645 49.3242C167.235 49.3585 167.94 49.3753 168.756 49.3753H171.284Z" fill="white"/>
</g>
</g>
</svg>
