<svg width="133" height="272" viewBox="0 0 133 272" fill="none" xmlns="http://www.w3.org/2000/svg">
<path d="M11.5467 8.88032C12.0072 6.78652 14.9928 6.78652 15.4533 8.88033L16.9415 15.646C17.071 16.2348 17.4593 16.7338 17.9982 17.0041L23.4351 19.7307C24.9064 20.4686 24.9064 22.5685 23.4351 23.3063L18.0284 26.0178C17.4723 26.2967 17.0776 26.8184 16.9606 27.4294L15.4643 35.2428C15.0497 37.4079 11.9503 37.4079 11.5357 35.2428L10.0394 27.4294C9.92238 26.8184 9.52773 26.2967 8.97165 26.0178L3.56487 23.3063C2.09363 22.5685 2.09363 20.4686 3.56487 19.7307L9.00179 17.0041C9.54075 16.7338 9.929 16.2348 10.0585 15.646L11.5467 8.88032Z" fill="#8F49E9"/>
<path d="M112.517 134.032C112.823 131.715 116.177 131.715 116.483 134.032L119.346 155.736C119.439 156.445 119.904 157.05 120.565 157.323L128.523 160.608C130.172 161.289 130.172 163.625 128.523 164.305L120.57 167.589C119.906 167.863 119.44 168.471 119.349 169.183L116.484 191.529C116.185 193.857 112.815 193.857 112.516 191.529L109.651 169.183C109.56 168.471 109.094 167.863 108.43 167.589L100.477 164.305C98.8285 163.625 98.8285 161.289 100.477 160.608L108.435 157.323C109.096 157.05 109.561 156.445 109.654 155.736L112.517 134.032Z" fill="#8F49E9"/>
</svg>
