<svg width="38" height="38" viewBox="0 0 38 38" fill="none" xmlns="http://www.w3.org/2000/svg">
<path d="M20.8524 3.16663H9.49992C7.75825 3.16663 6.33325 4.59163 6.33325 6.33329V31.6666C6.33325 33.4083 7.75825 34.8333 9.49992 34.8333H28.4999C30.2416 34.8333 31.6666 33.4083 31.6666 31.6666V13.9808C31.6666 13.1416 31.3341 12.3341 30.7324 11.7483L23.0849 4.10079C22.4991 3.49913 21.6916 3.16663 20.8524 3.16663ZM18.9999 15.8333C20.7416 15.8333 22.1666 17.2583 22.1666 19C22.1666 20.7416 20.7416 22.1666 18.9999 22.1666C17.2583 22.1666 15.8333 20.7416 15.8333 19C15.8333 17.2583 17.2583 15.8333 18.9999 15.8333ZM25.3333 28.5H12.6666V27.5975C12.6666 26.315 13.4266 25.175 14.5983 24.6683C15.9441 24.0825 17.4324 23.75 18.9999 23.75C20.5674 23.75 22.0558 24.0825 23.4016 24.6683C24.5732 25.175 25.3333 26.315 25.3333 27.5975V28.5Z" fill="#E1D9EC"/>
</svg>
