<svg width="39" height="38" viewBox="0 0 39 38" fill="none" xmlns="http://www.w3.org/2000/svg">
<path d="M23.7087 4.10079C23.0912 3.49913 22.2625 3.16663 21.4012 3.16663H9.75C7.9625 3.16663 6.5 4.59163 6.5 6.33329V31.6666C6.5 33.4083 7.94625 34.8333 9.73375 34.8333H29.25C31.0375 34.8333 32.5 33.4083 32.5 31.6666V13.9808C32.5 13.1416 32.1588 12.3341 31.5413 11.7483L23.7087 4.10079ZM24.375 28.5H14.625C13.7312 28.5 13 27.7875 13 26.9166C13 26.0458 13.7312 25.3333 14.625 25.3333H24.375C25.2687 25.3333 26 26.0458 26 26.9166C26 27.7875 25.2687 28.5 24.375 28.5ZM24.375 22.1666H14.625C13.7312 22.1666 13 21.4541 13 20.5833C13 19.7125 13.7312 19 14.625 19H24.375C25.2687 19 26 19.7125 26 20.5833C26 21.4541 25.2687 22.1666 24.375 22.1666ZM21.125 12.6666V5.54163L30.0625 14.25H22.75C21.8562 14.25 21.125 13.5375 21.125 12.6666Z" fill="#E1D9EC"/>
</svg>
