<svg width="38" height="38" viewBox="0 0 38 38" fill="none" xmlns="http://www.w3.org/2000/svg">
<path d="M31.6668 3.16663H6.33342C4.59175 3.16663 3.18258 4.59163 3.18258 6.33329L3.16675 34.8333L9.50008 28.5H31.6668C33.4084 28.5 34.8334 27.075 34.8334 25.3333V6.33329C34.8334 4.59163 33.4084 3.16663 31.6668 3.16663ZM26.9167 22.1666H11.0834C10.2126 22.1666 9.50008 21.4541 9.50008 20.5833C9.50008 19.7125 10.2126 19 11.0834 19H26.9167C27.7876 19 28.5001 19.7125 28.5001 20.5833C28.5001 21.4541 27.7876 22.1666 26.9167 22.1666ZM26.9167 17.4166H11.0834C10.2126 17.4166 9.50008 16.7041 9.50008 15.8333C9.50008 14.9625 10.2126 14.25 11.0834 14.25H26.9167C27.7876 14.25 28.5001 14.9625 28.5001 15.8333C28.5001 16.7041 27.7876 17.4166 26.9167 17.4166ZM26.9167 12.6666H11.0834C10.2126 12.6666 9.50008 11.9541 9.50008 11.0833C9.50008 10.2125 10.2126 9.49996 11.0834 9.49996H26.9167C27.7876 9.49996 28.5001 10.2125 28.5001 11.0833C28.5001 11.9541 27.7876 12.6666 26.9167 12.6666Z" fill="#8F49E9"/>
</svg>
