<svg width="27" height="27" viewBox="0 0 27 27" fill="none" xmlns="http://www.w3.org/2000/svg">
<path d="M16.875 1.125H4.5C3.2625 1.125 2.25 2.1375 2.25 3.375V18C2.25 18.6188 2.75625 19.125 3.375 19.125C3.99375 19.125 4.5 18.6188 4.5 18V4.5C4.5 3.88125 5.00625 3.375 5.625 3.375H16.875C17.4938 3.375 18 2.86875 18 2.25C18 1.63125 17.4938 1.125 16.875 1.125ZM21.375 5.625H9C7.7625 5.625 6.75 6.6375 6.75 7.875V23.625C6.75 24.8625 7.7625 25.875 9 25.875H21.375C22.6125 25.875 23.625 24.8625 23.625 23.625V7.875C23.625 6.6375 22.6125 5.625 21.375 5.625ZM20.25 23.625H10.125C9.50625 23.625 9 23.1188 9 22.5V9C9 8.38125 9.50625 7.875 10.125 7.875H20.25C20.8688 7.875 21.375 8.38125 21.375 9V22.5C21.375 23.1188 20.8688 23.625 20.25 23.625Z" fill="#232026"/>
</svg>
