<svg width="28" height="28" viewBox="0 0 28 28" fill="none" xmlns="http://www.w3.org/2000/svg">
<path d="M23.3335 4.66663H4.66683C3.3835 4.66663 2.34516 5.71663 2.34516 6.99996L2.3335 21C2.3335 22.2833 3.3835 23.3333 4.66683 23.3333H23.3335C24.6168 23.3333 25.6668 22.2833 25.6668 21V6.99996C25.6668 5.71663 24.6168 4.66663 23.3335 4.66663ZM22.1668 21H5.8335C5.19183 21 4.66683 20.475 4.66683 19.8333V9.33329L12.7635 14.3966C13.5218 14.875 14.4785 14.875 15.2368 14.3966L23.3335 9.33329V19.8333C23.3335 20.475 22.8085 21 22.1668 21ZM14.0002 12.8333L4.66683 6.99996H23.3335L14.0002 12.8333Z" fill="#E1D9EC"/>
</svg>
