<svg width="174" height="272" viewBox="0 0 174 272" fill="none" xmlns="http://www.w3.org/2000/svg">
<path d="M50.5116 235.347C50.7695 232.968 54.2305 232.968 54.4884 235.347L54.9485 239.593C55.0217 240.268 55.4322 240.86 56.0389 241.165L58.4438 242.373C59.9131 243.112 59.9131 245.209 58.4438 245.948L56.0423 247.154C55.4338 247.46 55.0227 248.055 54.9514 248.732L54.489 253.121C54.2375 255.508 50.7625 255.508 50.511 253.121L50.0486 248.732C49.9773 248.055 49.5662 247.46 48.9577 247.154L46.5562 245.948C45.0869 245.209 45.0869 243.112 46.5562 242.373L48.9611 241.165C49.5678 240.86 49.9783 240.268 50.0515 239.593L50.5116 235.347Z" fill="#8F49E9"/>
<path d="M162.046 20.962C162.503 18.8634 165.497 18.8634 165.954 20.962L166.498 23.4579C166.626 24.0458 167.013 24.5448 167.55 24.8164L170.472 26.2952C171.935 27.0352 171.935 29.1243 170.472 29.8644L167.579 31.328C167.025 31.6083 166.633 32.1298 166.517 32.7396L165.965 35.6495C165.553 37.8188 162.447 37.8188 162.035 35.6495L161.483 32.7396C161.367 32.1298 160.975 31.6083 160.421 31.328L157.528 29.8644C156.065 29.1243 156.065 27.0352 157.528 26.2952L160.45 24.8164C160.987 24.5448 161.374 24.0458 161.502 23.4579L162.046 20.962Z" fill="#8F49E9"/>
<path d="M15.5438 116.198C15.9929 114.086 19.0071 114.086 19.4562 116.198L22.03 128.3C22.1545 128.885 22.5343 129.384 23.0654 129.659L31.577 134.074C33.0158 134.82 33.0158 136.878 31.577 137.624L23.0943 142.024C22.5468 142.308 22.1609 142.829 22.0486 143.435L19.4666 157.38C19.0627 159.561 15.9373 159.561 15.5334 157.38L12.9514 143.435C12.8391 142.829 12.4532 142.308 11.9057 142.024L3.42305 137.624C1.98416 136.878 1.98416 134.82 3.42305 134.074L11.9346 129.659C12.4657 129.384 12.8455 128.885 12.97 128.3L15.5438 116.198Z" fill="#8F49E9"/>
</svg>
