<svg width="26" height="26" viewBox="0 0 26 26" fill="none" xmlns="http://www.w3.org/2000/svg">
<path d="M0.620458 8.7075H5.92756V25.7777H0.620458V8.7075ZM3.27415 0.222168C4.97036 0.222168 6.34884 1.60064 6.34884 3.2997C6.34884 4.99705 4.97036 6.37553 3.27415 6.37553C1.57396 6.37553 0.199463 4.99705 0.199463 3.2997C0.199463 1.60064 1.57396 0.222168 3.27415 0.222168Z" fill="#E1D9EC"/>
<path d="M9.25513 8.70761H14.344V11.0419H14.4166C15.1249 9.69923 16.8561 8.28491 19.4364 8.28491C24.8089 8.28491 25.8005 11.8193 25.8005 16.4155V25.7778H20.4974V17.4765C20.4974 15.4964 20.463 12.9503 17.7405 12.9503C14.9795 12.9503 14.5582 15.1084 14.5582 17.3343V25.7778H9.25513V8.70761Z" fill="#E1D9EC"/>
</svg>
