<svg width="111" height="111" viewBox="0 0 111 111" fill="none" xmlns="http://www.w3.org/2000/svg">
<circle cx="55.5" cy="55.5" r="55.5" fill="#D9D9D9"/>
<g clip-path="url(#clip0_211_1405)">
<g clip-path="url(#clip1_211_1405)">
<path d="M53.8497 76.6349C57.7506 76.6349 61.6134 75.8665 65.2174 74.3737C68.8214 72.8809 72.0961 70.6928 74.8545 67.9344C77.6129 65.176 79.801 61.9013 81.2939 58.2973C82.7867 54.6932 83.5551 50.8305 83.5551 46.9295C83.5551 43.0285 82.7867 39.1658 81.2939 35.5617C79.801 31.9577 77.6129 28.683 74.8545 25.9246C72.0961 23.1662 68.8214 20.9781 65.2174 19.4853C61.6134 17.9925 57.7506 17.2241 53.8497 17.2241L53.8497 46.9295L53.8497 76.6349Z" fill="#8F49E9"/>
<rect x="53.8497" y="76.635" width="29.7054" height="16.8478" fill="#8F49E9"/>
</g>
</g>
<circle cx="66.9827" cy="39.5517" r="5.10345" fill="#E1D9EC"/>
<circle cx="44.0173" cy="39.5517" r="5.10345" fill="#232026"/>
<path d="M70.4595 50.7155C71.3579 50.7155 72.0947 51.4456 72.005 52.3395C71.8465 53.9186 71.4575 55.4691 70.848 56.9407C70.0305 58.9143 68.8322 60.7076 67.3217 62.2182C65.8111 63.7287 64.0178 64.9269 62.0442 65.7445C60.0706 66.562 57.9552 66.9827 55.819 66.9827C53.6828 66.9827 51.5674 66.562 49.5938 65.7445C47.6202 64.9269 45.8269 63.7287 44.3163 62.2182C42.8058 60.7076 41.6075 58.9143 40.79 56.9407C40.1805 55.469 39.7915 53.9186 39.633 52.3395C39.5433 51.4456 40.2801 50.7155 41.1785 50.7155V50.7155C42.0769 50.7155 42.7947 51.4466 42.9067 52.338C43.0514 53.4895 43.3498 54.6189 43.7958 55.6956C44.4498 57.2746 45.4084 58.7092 46.6169 59.9176C47.8253 61.1261 49.2599 62.0847 50.8388 62.7387C52.4177 63.3927 54.11 63.7293 55.819 63.7293C57.528 63.7293 59.2203 63.3927 60.7992 62.7387C62.3781 62.0847 63.8127 61.1261 65.0211 59.9176C66.2296 58.7092 67.1882 57.2746 67.8422 55.6956C68.2882 54.6189 68.5866 53.4895 68.7313 52.338C68.8433 51.4466 69.5611 50.7155 70.4595 50.7155V50.7155Z" fill="#232026"/>
<defs>
<clipPath id="clip0_211_1405">
<rect width="28.0551" height="75.9138" fill="white" transform="translate(55.5 17.2241)"/>
</clipPath>
<clipPath id="clip1_211_1405">
<rect width="28.0551" height="75.9138" fill="white" transform="translate(55.5 17.2241)"/>
</clipPath>
</defs>
</svg>
