<svg width="24" height="24" viewBox="0 0 24 24" fill="none" xmlns="http://www.w3.org/2000/svg">
<path d="M9.00019 6.99994C8.35919 6.99994 4.63919 6.99994 4.00019 6.99994C2.89519 6.99994 2.00019 7.89494 2.00019 8.99994C2.00019 10.1049 2.89519 10.9999 4.00019 10.9999C4.63919 10.9999 8.35919 10.9999 9.00019 10.9999C10.1052 10.9999 11.0002 10.1049 11.0002 8.99994C11.0002 7.89494 10.1052 6.99994 9.00019 6.99994ZM11.0002 4.10694V5.49994C11.0002 5.77594 10.7792 5.99994 10.5032 5.99994C10.0212 5.99994 9.31719 5.99994 9.00019 5.99994C7.89519 5.99994 7.00019 5.10494 7.00019 3.99994C7.00019 2.78494 8.08319 1.82394 9.33619 2.02694C10.3192 2.18694 11.0002 3.11094 11.0002 4.10694ZM7.00019 13.9999C7.00019 14.6409 7.00019 18.3609 7.00019 18.9999C7.00019 20.1049 7.89519 20.9999 9.00019 20.9999C10.1052 20.9999 11.0002 20.1049 11.0002 18.9999C11.0002 18.3609 11.0002 14.6409 11.0002 13.9999C11.0002 12.8949 10.1052 11.9999 9.00019 11.9999C7.89519 11.9999 7.00019 12.8949 7.00019 13.9999ZM4.10719 11.9999H5.50019C5.77619 11.9999 6.00019 12.2209 6.00019 12.4969C6.00019 12.9789 6.00019 13.6819 6.00019 13.9999C6.00019 15.1049 5.10519 15.9999 4.00019 15.9999C2.78519 15.9999 1.82419 14.9169 2.02719 13.6639C2.18719 12.6799 3.11019 11.9999 4.10719 11.9999ZM14.0002 15.9999C14.6412 15.9999 18.3612 15.9999 19.0002 15.9999C20.1052 15.9999 21.0002 15.1049 21.0002 13.9999C21.0002 12.8949 20.1052 11.9999 19.0002 11.9999C18.3612 11.9999 14.6412 11.9999 14.0002 11.9999C12.8952 11.9999 12.0002 12.8949 12.0002 13.9999C12.0002 15.1039 12.8952 15.9999 14.0002 15.9999ZM12.0002 18.8929V17.4999C12.0002 17.2239 12.2212 16.9999 12.4972 16.9999C12.9792 16.9999 13.6832 16.9999 14.0002 16.9999C15.1052 16.9999 16.0002 17.8949 16.0002 18.9999C16.0002 20.2149 14.9172 21.1759 13.6642 20.9729C12.6802 20.8119 12.0002 19.8889 12.0002 18.8929ZM16.0002 8.99994C16.0002 8.35894 16.0002 4.63894 16.0002 3.99994C16.0002 2.89494 15.1052 1.99994 14.0002 1.99994C12.8952 1.99994 12.0002 2.89494 12.0002 3.99994C12.0002 4.63894 12.0002 8.35894 12.0002 8.99994C12.0002 10.1049 12.8952 10.9999 14.0002 10.9999C15.1042 10.9999 16.0002 10.1039 16.0002 8.99994ZM18.8932 10.9999H17.5002C17.2242 10.9999 17.0002 10.7789 17.0002 10.5029C17.0002 10.0209 17.0002 9.31694 17.0002 8.99994C17.0002 7.89494 17.8952 6.99994 19.0002 6.99994C20.2152 6.99994 21.1762 8.08295 20.9732 9.33595C20.8122 10.3189 19.8892 10.9999 18.8932 10.9999Z" fill="#E1D9EC"/>
</svg>
