<svg width="22" height="20" viewBox="0 0 22 20" fill="none" xmlns="http://www.w3.org/2000/svg">
<path d="M20.1313 0.00181939C19.8134 0.0157742 19.5216 0.10804 19.2653 0.209976C19.0286 0.304072 18.1783 0.664697 16.8244 1.23775C15.4705 1.8108 13.6765 2.57059 11.7642 3.38219C7.93964 5.00539 3.64183 6.83129 1.43964 7.76648C1.36401 7.79828 1.05688 7.89316 0.71767 8.15461C0.377671 8.41666 0 8.98538 0 9.60736C0 10.1091 0.248207 10.6201 0.547921 10.9127C0.847636 11.2052 1.15139 11.342 1.40526 11.4439C2.14795 11.7424 4.44301 12.6673 5.44054 13.0701C5.78999 14.1269 6.61076 16.6162 6.80282 17.2289H6.80067C6.95691 17.7276 7.10919 18.0526 7.32066 18.3239C7.4264 18.4596 7.55261 18.5825 7.70743 18.6795C7.76683 18.7167 7.8326 18.7456 7.89866 18.7727C7.90787 18.7767 7.91736 18.7777 7.9266 18.7814L7.90081 18.7749C7.91997 18.7827 7.93716 18.7941 7.95668 18.8009C7.98849 18.812 8.01054 18.8116 8.05337 18.8204C8.2041 18.8672 8.35455 18.8985 8.49386 18.8985C9.0919 18.8985 9.45863 18.5711 9.45863 18.5711L9.48226 18.5537L12.065 16.3486L15.2279 19.2996C15.2845 19.3803 15.7367 20 16.7857 20C17.4108 20 17.9071 19.69 18.2232 19.3625C18.5394 19.0351 18.7363 18.7 18.8249 18.2458V18.2415V18.2393C18.8863 17.917 21.9233 2.53439 21.9233 2.53439L21.9169 2.56041C22.0111 2.13594 22.0389 1.72545 21.9276 1.30713C21.8163 0.888814 21.5158 0.480579 21.1541 0.266351C20.7923 0.0521238 20.4492 -0.0121359 20.1313 0.00181939ZM19.6972 2.43248C19.5779 3.03685 16.8753 16.7382 16.6998 17.6474L13.5584 14.718C12.7486 13.9626 11.486 13.936 10.6447 14.653L9.04178 16.0212L9.89697 12.6473C9.89697 12.6473 15.7965 6.62117 16.1519 6.27036C16.4379 5.98949 16.4978 5.89103 16.4978 5.79333C16.4978 5.66344 16.4316 5.57 16.2786 5.57C16.1411 5.57 15.9544 5.70298 15.8553 5.76515C14.5918 6.56006 9.18202 9.6712 6.56217 11.175C6.46376 11.1156 6.36696 11.0539 6.2592 11.0103C5.39957 10.6631 3.74732 9.99463 2.78043 9.6052C5.06241 8.63602 8.97412 6.97526 12.6172 5.42906C14.5292 4.6176 16.3227 3.85712 17.6753 3.28462C18.8171 2.80135 19.4127 2.55113 19.6972 2.43248ZM16.6654 17.8079H16.6676C16.6675 17.8082 16.6655 17.8162 16.6654 17.8165C16.6673 17.807 16.6641 17.8147 16.6654 17.8079Z" fill="#E1D9EC"/>
</svg>
