<svg width="26" height="26" viewBox="0 0 26 26" fill="none" xmlns="http://www.w3.org/2000/svg">
<g clip-path="url(#clip0_174_155)">
<path d="M25.4106 4.81311C25.0021 4.99427 24.5822 5.14717 24.1531 5.2713C24.6611 4.69678 25.0484 4.02078 25.2849 3.28104C25.3379 3.11523 25.2829 2.93373 25.1466 2.82528C25.0105 2.71676 24.8214 2.70376 24.6715 2.79257C23.7603 3.33304 22.7771 3.72145 21.7463 3.94857C20.7078 2.9339 19.2975 2.35645 17.8395 2.35645C14.7618 2.35645 12.2579 4.86024 12.2579 7.93781C12.2579 8.18019 12.2733 8.42124 12.3036 8.65893C8.48458 8.32361 4.93407 6.4465 2.49594 3.45574C2.40905 3.34914 2.27519 3.29169 2.13815 3.30268C2.00102 3.31341 1.87781 3.39074 1.80853 3.50959C1.31403 4.35811 1.05261 5.32858 1.05261 6.31599C1.05261 7.66086 1.53277 8.93688 2.38095 9.93394C2.12305 9.84461 1.87278 9.73298 1.63392 9.60038C1.50568 9.52901 1.34917 9.5301 1.22177 9.60315C1.09429 9.6762 1.01436 9.81056 1.01101 9.95742C1.01042 9.98216 1.01042 10.0069 1.01042 10.032C1.01042 12.0394 2.09084 13.8468 3.74268 14.8318C3.60077 14.8177 3.45895 14.7971 3.31804 14.7702C3.17278 14.7424 3.02341 14.7933 2.92544 14.9041C2.82732 15.0148 2.79486 15.1692 2.84006 15.3101C3.45148 17.219 5.02566 18.6231 6.92869 19.0511C5.35032 20.0397 3.54534 20.5575 1.65052 20.5575C1.25515 20.5575 0.857522 20.5343 0.468361 20.4883C0.275038 20.4653 0.0901866 20.5794 0.0243478 20.7633C-0.0414909 20.9472 0.0282898 21.1523 0.192761 21.2577C2.62695 22.8184 5.44157 23.6434 8.33219 23.6434C14.0148 23.6434 17.5697 20.9637 19.5511 18.7157C22.0219 15.9127 23.439 12.2025 23.439 8.53656C23.439 8.38341 23.4367 8.22876 23.432 8.0746C24.4068 7.34014 25.2461 6.45128 25.9291 5.42965C26.0328 5.27448 26.0216 5.06942 25.9014 4.92659C25.7814 4.78367 25.5813 4.73746 25.4106 4.81311Z" fill="#E1D9EC"/>
</g>
<defs>
<clipPath id="clip0_174_155">
<rect width="26" height="26" fill="white"/>
</clipPath>
</defs>
</svg>
