<svg width="31" height="31" viewBox="0 0 31 31" fill="none" xmlns="http://www.w3.org/2000/svg">
<path d="M23.1818 9.67731C20.2841 9.67731 18.0971 11.5909 17.2223 14.5979C15.8555 12.4657 14.762 10.06 14.1606 7.98242H11.0989V16.0195C11.0989 17.605 9.7867 18.9172 8.20116 18.9172C6.61562 18.9172 5.30345 17.605 5.30345 16.0195V8.0371H2.35107V16.0741C2.35107 19.4092 5.03009 22.0882 8.31051 22.0882C11.5909 22.0882 14.2699 19.4092 14.2699 16.0741V14.7073C14.8714 15.9101 15.6368 17.2223 16.4569 18.3704L14.5433 27.2822H17.6597L18.9719 20.7761C20.1747 21.5415 21.5416 21.9789 23.1818 21.9789C26.5169 21.9789 29.2505 19.2452 29.2505 15.7461C29.2505 12.411 26.5169 9.67731 23.1818 9.67731ZM23.1818 18.9172C21.9789 18.9172 20.7214 18.3704 19.7373 17.5503L20.0654 16.3475V16.2928C20.2841 14.9807 20.9948 12.7937 23.2364 12.7937C24.9313 12.7937 26.2982 14.1606 26.2982 15.8554C26.2435 17.5503 24.7673 18.9172 23.1818 18.9172Z" fill="#E1D9EC"/>
</svg>
